<?xml version="1.0" encoding="iso-8859-1"?>
<!-- Generator: Adobe Illustrator 19.0.0, SVG Export Plug-In . SVG Version: 6.00 Build 0)  -->
<svg version="1.1" id="Capa_1" xmlns="http://www.w3.org/2000/svg" xmlns:xlink="http://www.w3.org/1999/xlink" x="0px" y="0px"
	 viewBox="0 0 512 512" style="enable-background:new 0 0 512 512;" xml:space="preserve">
<g>
	<g>
		<path d="M452,391H272v60h180c16.5,0,30-13.5,30-30S468.5,391,452,391z"/>
	</g>
</g>
<g>
	<g>
		<path d="M272,482v30h165c8.401,0,15-6.601,15-15v-15H272z"/>
	</g>
</g>
<g>
	<g>
		<path d="M490.323,30.015C477.522,29.558,467,39.801,467,52.5c0,0,0,81.307,0,133.551c0,15.913-6.321,31.169-17.573,42.421
			L382.4,295.499c-2.999,3.001-6.598,4.501-10.499,4.501s-7.801-1.5-10.501-4.502c-2.999-2.699-4.499-6.599-4.499-10.499
			c0-3.9,1.5-7.8,4.499-10.501l35.101-35.099c11.699-11.7,11.4-30.899-0.3-42.599c-11.7-11.7-30.601-11.7-42.301,0
			c-0.892,0.895-32.066,32.185-55.692,55.898C281.424,269.544,272,292.355,272,316.135V360h180v-10.501l32.401-48.299
			C502.4,273.9,512,242.399,512,209.7V53.04C512,40.84,502.514,30.449,490.323,30.015z"/>
	</g>
</g>
<g>
	<g>
		<path d="M172.5,30C160.074,30,150,40.074,150,52.5v107.021c10.76,2.387,20.994,7.746,29.36,16.112
			c0.394,0.395,6.696,6.721,15.64,15.698c0-61.136,0-132.929,0-138.831C195,40.074,184.926,30,172.5,30z"/>
	</g>
</g>
<g>
	<g>
		<path d="M96.677,0.015C84.486,0.45,75,10.841,75,23.04V52.5v133.551c0,5.429,1.44,10.633,4.127,15.19
			c0.087-0.059,0.173-0.119,0.255-0.19c6.28-21.055,20.59-33.874,40.618-40.55V22.5C120,9.801,109.478-0.442,96.677,0.015z"/>
	</g>
</g>
<g>
	<g>
		<path d="M60,391c-16.5,0-30,13.5-30,30s13.5,30,30,30h180v-60H60z"/>
	</g>
</g>
<g>
	<g>
		<path d="M60,482v15c0,8.399,6.599,15,15,15h165v-30H60z"/>
	</g>
</g>
<g>
	<g>
		<path d="M213.792,252.698c-23.626-23.713-54.8-55.003-55.692-55.898c-11.7-11.7-30.601-11.7-42.301,0
			c-11.7,11.7-11.999,30.899-0.3,42.599l35.101,35.099c3,2.702,4.5,6.602,4.5,10.502c0,3.9-1.5,7.8-4.499,10.499
			C147.9,298.5,144,300,140.1,300c-3.9,0-7.5-1.5-10.499-4.501l-67.027-67.027C51.321,217.22,45,201.964,45,186.051
			C45,133.807,45,52.5,45,52.5c0-12.699-10.522-22.942-23.323-22.485C9.486,30.449,0,40.84,0,53.04V209.7
			c0,32.699,9.6,64.2,27.599,91.5L60,349.499V360h180v-43.865C240,292.355,230.576,269.544,213.792,252.698z"/>
	</g>
</g>
<g>
	<g>
		<path d="M339.5,30C327.074,30,317,40.074,317,52.5c0,5.902,0,77.695,0,138.831c8.944-8.977,15.246-15.303,15.64-15.698
			c8.366-8.366,18.6-13.725,29.36-16.112V52.5C362,40.074,351.926,30,339.5,30z"/>
	</g>
</g>
<g>
	<g>
		<path d="M415.323,0.015C402.522-0.442,392,9.801,392,22.5v138.001c20.028,6.676,34.338,19.495,40.618,40.55
			c0.082,0.071,0.168,0.131,0.255,0.19c2.687-4.558,4.127-9.762,4.127-15.19V52.5V23.04C437,10.841,427.514,0.45,415.323,0.015z"/>
	</g>
</g>
<g>
</g>
<g>
</g>
<g>
</g>
<g>
</g>
<g>
</g>
<g>
</g>
<g>
</g>
<g>
</g>
<g>
</g>
<g>
</g>
<g>
</g>
<g>
</g>
<g>
</g>
<g>
</g>
<g>
</g>
</svg>
